<svg width="64" height="31" viewBox="0 0 64 31" fill="none" xmlns="http://www.w3.org/2000/svg">
<path d="M59.7157 3.62614C63.1522 4.87615 63.2303 20.0325 62.8398 27.4545C61.7984 27.9753 62.8397 29.017 58.1536 29.4076C56.549 29.5414 3.09216 31.7514 1.53013 26.6732C0.280511 22.6107 1.53013 18.9909 2.31115 17.6888C23.008 14.9544 39.0188 -2.62391 39.7998 1.673C41.2667 9.74351 52.296 9.48557 55.0296 7.1418C57.1261 5.34425 56.2792 2.37613 59.7157 3.62614Z" fill="#E5E5E5" stroke="black"/>
<path d="M36.5 8L38.6329 14.5643H45.535L39.9511 18.6213L42.084 25.1857L36.5 21.1287L30.916 25.1857L33.0489 18.6213L27.465 14.5643H34.3671L36.5 8Z" fill="#626262"/>
<path d="M59.7157 3.62614C63.1522 4.87615 63.2303 20.0325 62.8398 27.4545C61.7984 27.9753 62.8397 29.017 58.1536 29.4076C56.549 29.5414 3.09216 31.7514 1.53013 26.6732C0.280511 22.6107 1.53013 18.9909 2.31115 17.6888C23.008 14.9544 39.0188 -2.62391 39.7998 1.673C41.2667 9.74351 52.296 9.48557 55.0296 7.1418C57.1261 5.34425 56.2792 2.37613 59.7157 3.62614Z" stroke="black"/>
<path d="M7 17C10 18 17.2 19.7 22 18.5C22.2624 18.4344 24 18 25.5 17.5C25 14.8333 23.5 12 22.5 11" stroke="black"/>
<path d="M41 5C36.8333 7.33333 30.3997 10.7 29.9997 11.5C29.4997 12.5 33.4998 18 33.9998 22" stroke="black"/>
<path d="M1 20.6004C7.67089 22.0674 21.3463 24.7241 37.1013 21.4006C48.481 19 60.6456 20.6004 63 19" stroke="black"/>
<path d="M51.5 20C42.5 12.5 44 10 39 6M55 7.5C55.6667 9 57.9 9 59.5 9C61.1 9 62 12.6667 62.5 12" stroke="black"/>
</svg>
