<svg width="30" height="20" viewBox="0 0 30 20" fill="none" xmlns="http://www.w3.org/2000/svg">
<path d="M28.5875 9.00458L28.5863 9.00325L21.2383 1.69075C20.6879 1.14294 19.7975 1.14498 19.2496 1.69553C18.7017 2.246 18.7038 3.13637 19.2543 3.68425L24.1877 8.59375H3.40625C2.62958 8.59375 2 9.22332 2 10C2 10.7767 2.62958 11.4062 3.40625 11.4062H24.1876L19.2543 16.3157C18.7039 16.8636 18.7018 17.754 19.2496 18.3045C19.7976 18.8551 20.688 18.857 21.2384 18.3092L28.5864 10.9967L28.5876 10.9954C29.1384 10.4457 29.1366 9.55246 28.5875 9.00458Z" fill="black"/>
</svg>
