<svg width="30" height="20" viewBox="0 0 30 20" fill="none" xmlns="http://www.w3.org/2000/svg">
<path d="M1.41245 9.00458L1.41372 9.00325L8.76166 1.69075C9.31213 1.14294 10.2025 1.14498 10.7504 1.69553C11.2983 2.246 11.2962 3.13637 10.7457 3.68425L5.81233 8.59375H26.5938C27.3704 8.59375 28 9.22332 28 10C28 10.7767 27.3704 11.4062 26.5938 11.4062H5.8124L10.7457 16.3157C11.2961 16.8636 11.2982 17.754 10.7504 18.3045C10.2024 18.8551 9.31199 18.857 8.76159 18.3092L1.41365 10.9967L1.41238 10.9954C0.861626 10.4457 0.863382 9.55246 1.41245 9.00458Z" fill="black"/>
</svg>
